<?xml version="1.0" encoding="iso-8859-1"?>
<!-- Generator: Adobe Illustrator 19.0.0, SVG Export Plug-In . SVG Version: 6.00 Build 0)  -->
<svg version="1.1" id="Layer_1" xmlns="http://www.w3.org/2000/svg" xmlns:xlink="http://www.w3.org/1999/xlink" x="0px" y="0px"
	 viewBox="0 0 512 512" style="enable-background:new 0 0 512 512;" xml:space="preserve">
<path style="fill:#64C37D;" d="M183.021,69.189h53.277c11.463,0,20.757-9.293,20.757-20.757s-9.294-20.757-20.757-20.757h-74.034
	c-11.463,0-20.757,9.293-20.757,20.757v60.884h41.514L183.021,69.189L183.021,69.189z"/>
<path style="fill:#D6D5D8;" d="M20.757,150.83h7.957h20.784h20.784h91.981h92.103h20.78h20.779h7.846
	c11.463,0,20.757-9.293,20.757-20.757c0-11.463-9.293-20.757-20.757-20.757h-27.676h-93.075h-41.514H48.432H20.757
	C9.293,109.316,0,118.61,0,130.073C0,141.536,9.293,150.83,20.757,150.83z"/>
<path style="fill:#EE8700;" d="M247.585,373.586h-40.018h-20.757h-20.757v43.82c0,8.99,1.795,17.567,5.026,25.405
	c3.199,7.757,7.817,14.78,13.528,20.757c12.187,12.752,29.34,20.721,48.33,20.721h0.721h91.53V373.586H247.585z"/>
<g>
	<path style="fill:#FFB655;" d="M442.811,373.586H325.189v110.703h92.251c36.879,0,66.884-30.003,66.884-66.882v-43.82h-20.757
		H442.811z"/>
	<path style="fill:#FFB655;" d="M440.977,332.072h21.04h1.55h19.403c-10.203-77.976-77.067-138.378-157.782-138.378v138.378H440.977
		z"/>
</g>
<path style="fill:#EE8700;" d="M251.579,211.777c-44.951,23.553-77.324,67.963-84.17,120.295h19.402h1.55h21.04h44.941h70.847
	V193.694c-10.735,0-21.224,1.075-31.368,3.112c-7.201,1.445-14.227,3.382-21.043,5.766
	C265.454,205.133,258.373,208.217,251.579,211.777z"/>
<path style="fill:#A78966;" d="M491.243,332.072h-8.274h-19.402h-1.55h-21.04H325.189h-70.847h-44.941h-21.04h-1.55h-19.402h-5.145
	h-3.129c-11.463,0-20.757,9.293-20.757,20.757s9.293,20.757,20.757,20.757h3.129h3.79h20.757h20.757h40.018h77.604h117.622h20.757
	h20.757h6.919c11.463,0,20.757-9.294,20.757-20.757S502.707,332.072,491.243,332.072z"/>
<path style="fill:#B6E892;" d="M184.608,463.568c-5.711-5.977-10.33-12.999-13.528-20.757c-3.231-7.839-5.026-16.414-5.026-25.405
	v-43.82h-3.79v110.739h70.674c0.244,0,0.482-0.029,0.721-0.036h-0.721C213.948,484.288,196.795,476.319,184.608,463.568z"/>
<path style="fill:#7ED63E;" d="M159.135,373.586c-11.463,0-20.757-9.294-20.757-20.757s9.293-20.757,20.757-20.757h3.129V150.83
	H70.282H49.498H28.714l16.106,313.802c0.566,11.036,9.68,19.693,20.729,19.693h96.715V373.586H159.135z"/>
<path style="fill:#B6E892;" d="M254.366,150.83h-92.103v181.242h5.145c6.846-52.332,39.219-96.742,84.17-120.295
	c6.794-3.56,13.875-6.642,21.2-9.205c6.817-2.384,13.842-4.322,21.043-5.766l2.103-45.976h-20.779H254.366L254.366,150.83z"/>
<g>
</g>
<g>
</g>
<g>
</g>
<g>
</g>
<g>
</g>
<g>
</g>
<g>
</g>
<g>
</g>
<g>
</g>
<g>
</g>
<g>
</g>
<g>
</g>
<g>
</g>
<g>
</g>
<g>
</g>
</svg>
